<svg width="1176" height="536" viewBox="0 0 1176 536" fill="none" xmlns="http://www.w3.org/2000/svg">
<mask id="mask0_8_62" style="mask-type:luminance" maskUnits="userSpaceOnUse" x="0" y="0" width="1176" height="536">
<rect width="1176" height="536" rx="20" fill="#D9D9D9"/>
</mask>
<g mask="url(#mask0_8_62)">
<path d="M190.595 595.285C230.561 542.524 353.617 420.729 518.862 363.599C725.418 292.187 711.28 354.638 902.879 261.586C1094.48 168.534 1080.39 52.5354 1206.29 -6.38968C1307.02 -53.5297 1365.63 -61.7238 1384.46 -59.5685M197.585 609.678C237.551 556.917 360.607 435.121 525.851 377.992C732.407 306.58 718.269 369.031 909.869 275.978C1101.47 182.926 1087.38 66.9278 1213.28 8.00266C1314.01 -39.1374 1372.62 -47.3315 1391.45 -45.1761M204.574 624.07C244.541 571.309 367.596 449.514 532.841 392.384C739.397 320.972 725.259 383.423 916.858 290.371C1108.46 197.319 1094.37 81.3203 1220.27 22.3952C1321 -24.7449 1379.61 -32.939 1398.44 -30.7836M211.564 638.463C251.531 585.702 374.586 463.906 539.831 406.776C746.387 335.365 732.249 397.816 923.848 304.763C1115.45 211.711 1101.36 95.7127 1227.26 36.7876C1327.99 -10.3524 1386.6 -18.5465 1405.43 -16.3912M218.117 651.955C258.084 599.195 381.139 477.399 546.384 420.269C752.94 348.858 738.802 411.308 930.401 318.256C1122 225.204 1107.91 109.206 1233.82 50.2805C1334.54 3.14049 1393.15 -5.05361 1411.99 -2.89825M224.67 665.448C264.637 612.687 387.692 490.892 552.937 433.762C759.493 362.35 745.355 424.801 936.954 331.749C1128.55 238.697 1114.46 122.699 1240.37 63.7734C1341.1 16.6334 1399.71 8.43925 1418.54 10.5946M231.223 678.941C271.19 626.18 394.245 504.385 559.49 447.255C766.046 375.843 751.908 438.294 943.507 345.242C1135.11 252.19 1121.02 136.191 1246.92 77.2663C1347.65 30.1262 1406.26 21.9321 1425.09 24.0875M237.776 692.434C277.743 639.673 400.798 517.878 566.043 460.748C772.599 389.336 758.461 451.787 950.06 358.735C1141.66 265.683 1127.57 149.684 1253.48 90.7592C1354.2 43.6192 1412.81 35.4251 1431.65 37.5805M244.329 705.927C284.296 653.166 407.351 531.371 572.596 474.241C779.152 402.829 765.014 465.28 956.613 372.228C1148.21 279.176 1134.12 163.177 1260.03 104.252C1360.76 57.1121 1419.36 48.918 1438.2 51.0734M250.883 719.42C290.849 666.659 413.904 544.863 579.149 487.734C785.705 416.322 771.567 478.773 963.166 385.721C1154.77 292.669 1140.67 176.67 1266.58 117.745C1367.31 70.605 1425.92 62.4109 1444.75 64.5662M257.435 732.913C297.401 680.152 420.457 558.356 585.702 501.227C792.258 429.815 778.12 492.266 969.719 399.214C1161.32 306.162 1147.23 190.163 1273.14 131.238C1373.86 84.0979 1432.47 75.9038 1451.3 78.0592M263.989 746.406C303.955 693.645 427.01 571.849 592.255 514.72C798.811 443.308 784.673 505.759 976.272 412.707C1167.87 319.655 1153.78 203.656 1279.69 144.731C1380.41 97.5909 1439.02 89.3968 1457.86 91.5521M270.541 759.899C310.507 707.138 433.563 585.342 598.807 528.213C805.363 456.801 791.225 519.252 982.825 426.2C1174.42 333.147 1160.33 217.149 1286.24 158.224C1386.97 111.084 1445.58 102.89 1464.41 105.045M277.094 773.392C317.06 720.631 440.116 598.835 605.361 541.706C811.917 470.294 797.779 532.745 989.378 439.693C1180.98 346.64 1166.89 230.642 1292.79 171.717C1393.52 124.577 1452.13 116.383 1470.96 118.538M283.647 786.885C323.613 734.124 446.669 612.328 611.914 555.198C818.47 483.787 804.332 546.238 995.931 453.185C1187.53 360.133 1173.44 244.135 1299.35 185.21C1400.07 138.07 1458.68 129.875 1477.52 132.031" stroke="url(#paint0_linear_8_62)"/>
</g>
<defs>
<linearGradient id="paint0_linear_8_62" x1="264.747" y1="747.968" x2="1488.1" y2="153.832" gradientUnits="userSpaceOnUse">
<stop offset="0.254872" stop-color="#009A3C"/>
<stop offset="0.908725" stop-color="#29166F"/>
</linearGradient>
</defs>
</svg>
