<svg width="89" height="67" viewBox="0 0 89 67" fill="none" xmlns="http://www.w3.org/2000/svg">
<path d="M54.0625 39.0833C51.8534 39.0833 50.0625 37.2925 50.0625 35.0833V3.99999C50.0625 1.79086 51.8534 0 54.0625 0H85C87.2091 0 89 1.79086 89 4V39.0833C89 51.3667 78.9875 67 66.75 67H62.0863C59.1154 67 57.1813 63.8757 58.506 61.2165L60.0834 58.0498C60.7599 56.6918 62.1661 55.8436 63.6092 55.375C66.475 54.4445 70.9951 51.625 72.0751 43.0811C72.3522 40.8894 70.5216 39.0833 68.3125 39.0833H54.0625ZM4 39.0833C1.79086 39.0833 0 37.2925 0 35.0833V3.99999C0 1.79086 1.79086 0 4 0H34.9375C37.1466 0 38.9375 1.79086 38.9375 4V39.0833C38.9375 51.3667 28.925 67 16.6875 67H12.0238C9.05292 67 7.1188 63.8757 8.44346 61.2165L10.0209 58.0498C10.6974 56.6918 12.1036 55.8436 13.5467 55.375C16.4125 54.4445 20.9326 51.625 22.0126 43.0811C22.2897 40.8894 20.4591 39.0833 18.25 39.0833H4Z" fill="#009A3C"/>
</svg>
